<svg width="101" height="54" viewBox="0 0 101 54" fill="none" xmlns="http://www.w3.org/2000/svg">
<rect x="0.199951" y="18" width="100" height="100" rx="50" fill="url(#paint0_linear_6305_54969)"/>
<path d="M67.4468 58.0762C66.7603 53.8438 64.59 49.4105 61.3244 46.632C58.0588 43.8534 53.911 42.3276 49.6233 42.3276C45.3356 42.3276 41.1878 43.8534 37.9222 46.632C34.6566 49.4105 32.4864 53.8438 31.7998 58.0762H67.4468Z" fill="#B3D6FF"/>
<path d="M67.4468 58.0762C66.7603 53.8438 64.59 49.4105 61.3244 46.632C58.0588 43.8534 53.911 42.3276 49.6233 42.3276C45.3356 42.3276 41.1878 43.8534 37.9222 46.632C34.6566 49.4105 32.4864 53.8438 31.7998 58.0762H67.4468Z" stroke="#000F66" stroke-width="0.816667" stroke-linecap="round" stroke-linejoin="round"/>
<path d="M57.7803 45.6409C57.7803 44.4588 57.3107 43.3251 56.4748 42.4893C55.639 41.6534 54.5053 41.1838 53.3232 41.1838H45.9282C45.2114 41.1831 44.5051 41.3552 43.869 41.6855C43.2329 42.0159 42.6859 42.4948 42.2743 43.0816C41.8627 43.6685 41.5988 44.3459 41.5048 45.0565C41.4108 45.767 41.4896 46.4898 41.7344 47.1635L43.7964 52.8332L49.621 49.3384L55.4457 52.8332L57.5065 47.1635C57.6862 46.6759 57.7789 46.1605 57.7803 45.6409Z" fill="white" stroke="#000F66" stroke-width="0.816667" stroke-linecap="round" stroke-linejoin="round"/>
<path d="M49.6257 49.3385V57.493" stroke="#000F66" stroke-width="0.816667" stroke-linecap="round" stroke-linejoin="round"/>
<path d="M53.703 45.2611L49.6257 49.3384L45.5485 45.2611V38.854H53.703V45.2611Z" fill="white"/>
<path d="M53.703 45.2611L49.6257 49.3384L45.5485 45.2611V38.854H53.703V45.2611Z" stroke="#000F66" stroke-width="0.816667" stroke-linecap="round" stroke-linejoin="round"/>
<path d="M61.2751 26.6222V23.7099C61.2751 20.6203 60.0477 17.6572 57.863 15.4726C55.6784 13.2879 52.7153 12.0605 49.6257 12.0605C46.5361 12.0605 43.5731 13.2879 41.3884 15.4726C39.2037 17.6572 37.9764 20.6203 37.9764 23.7099V26.6222C37.3584 26.6222 36.7658 26.8677 36.3289 27.3046C35.892 27.7416 35.6465 28.3342 35.6465 28.9521C35.6465 29.57 35.892 30.1626 36.3289 30.5996C36.7658 31.0365 37.3584 31.282 37.9764 31.282C38.0253 31.282 38.0707 31.2703 38.1196 31.268C38.5313 34.0253 39.9195 36.5431 42.0314 38.3631C44.1432 40.183 46.8384 41.1841 49.6263 41.1841C52.4142 41.1841 55.1094 40.183 57.2212 38.3631C59.3331 36.5431 60.7212 34.0253 61.1329 31.268C61.1807 31.268 61.2261 31.282 61.2751 31.282C61.893 31.282 62.4856 31.0365 62.9225 30.5996C63.3595 30.1626 63.6049 29.57 63.6049 28.9521C63.6049 28.3342 63.3595 27.7416 62.9225 27.3046C62.4856 26.8677 61.893 26.6222 61.2751 26.6222Z" fill="white" stroke="#000F66" stroke-width="0.816667" stroke-linecap="round" stroke-linejoin="round"/>
<path d="M56.0328 27.7871C55.8888 27.441 55.6456 27.1454 55.3338 26.9374C55.022 26.7294 54.6556 26.6184 54.2807 26.6184C53.9059 26.6184 53.5395 26.7294 53.2277 26.9374C52.9159 27.1454 52.6727 27.441 52.5287 27.7871" stroke="#000F66" stroke-width="0.816667" stroke-linecap="round" stroke-linejoin="round"/>
<path d="M46.7238 27.787C46.5796 27.441 46.3362 27.1455 46.0243 26.9376C45.7124 26.7297 45.346 26.6188 44.9711 26.6188C44.5963 26.6188 44.2299 26.7297 43.918 26.9376C43.6061 27.1455 43.3627 27.441 43.2185 27.787" stroke="#000F66" stroke-width="0.816667" stroke-linecap="round" stroke-linejoin="round"/>
<path d="M41.4711 31.8644C41.4711 32.2506 41.6245 32.621 41.8976 32.894C42.1707 33.1671 42.541 33.3205 42.9272 33.3205C43.3134 33.3205 43.6838 33.1671 43.9569 32.894C44.23 32.621 44.3834 32.2506 44.3834 31.8644C44.3834 31.4782 44.23 31.1078 43.9569 30.8347C43.6838 30.5616 43.3134 30.4082 42.9272 30.4082C42.541 30.4082 42.1707 30.5616 41.8976 30.8347C41.6245 31.1078 41.4711 31.4782 41.4711 31.8644Z" fill="#B3D6FF"/>
<path d="M54.8679 31.8644C54.8679 32.2506 55.0213 32.621 55.2944 32.894C55.5675 33.1671 55.9379 33.3205 56.3241 33.3205C56.7103 33.3205 57.0807 33.1671 57.3538 32.894C57.6268 32.621 57.7803 32.2506 57.7803 31.8644C57.7803 31.4782 57.6268 31.1078 57.3538 30.8347C57.0807 30.5616 56.7103 30.4082 56.3241 30.4082C55.9379 30.4082 55.5675 30.5616 55.2944 30.8347C55.0213 31.1078 54.8679 31.4782 54.8679 31.8644Z" fill="#B3D6FF"/>
<path d="M46.1309 34.7767C47.0731 35.6741 48.3245 36.1747 49.6257 36.1747C50.9269 36.1747 52.1782 35.6741 53.1205 34.7767" stroke="#000F66" stroke-width="0.816667" stroke-linecap="round" stroke-linejoin="round"/>
<path d="M61.2785 26.0397C61.2785 26.0397 57.2827 22.0323 57.2012 17.4308C54.9353 18.869 52.307 19.6327 49.6233 19.6327C46.9396 19.6327 44.3113 18.869 42.0454 17.4308C41.9755 22.0323 37.9798 26.0397 37.9798 26.0397C34.8694 19.8306 37.5021 16.3358 38.935 15.0078C38.7126 14.6452 38.5845 14.2327 38.5622 13.8079C38.4728 11.1717 39.0838 8.55898 40.3329 6.23581C40.3329 6.23581 41.5466 4.05534 42.8893 3.42165C46.7339 1.60726 54.5684 6.23581 54.5684 6.23581C56.1953 6.7151 57.6193 7.71597 58.6213 9.08425C59.6233 10.4525 60.1477 12.1123 60.1135 13.8079C60.1054 14.1055 60.0381 14.3986 59.9155 14.67C61.127 15.6264 64.7034 19.1666 61.2785 26.0397Z" fill="white"/>
<path d="M57.2012 17.431C57.2827 22.0325 61.2785 26.0399 61.2785 26.0399C64.7034 19.1668 61.127 15.6265 59.9155 14.6701C60.0381 14.3988 60.1054 14.1057 60.1135 13.8081C60.1477 12.1125 59.6233 10.4527 58.6213 9.08443C57.6193 7.71615 56.1953 6.71528 54.5684 6.236C54.5684 6.236 47.1226 1.86635 43.2781 3.42164C41.3073 4.21894 40.3329 6.236 40.3329 6.236C39.0838 8.55916 38.4728 11.1719 38.5622 13.8081C38.5845 14.2329 38.7126 14.6453 38.935 15.008C37.5021 16.336 34.8694 19.8308 37.9798 26.0399C37.9798 26.0399 41.9755 22.0325 42.0454 17.431C44.3113 18.8692 46.9396 19.6328 49.6233 19.6328C52.307 19.6328 54.9353 18.8692 57.2012 17.431Z" stroke="#000F66" stroke-width="0.816667" stroke-linecap="round" stroke-linejoin="round"/>
<defs>
<linearGradient id="paint0_linear_6305_54969" x1="50.2" y1="18" x2="50.2" y2="118" gradientUnits="userSpaceOnUse">
<stop stop-color="#D9EBFF"/>
<stop offset="0.4" stop-color="white"/>
</linearGradient>
</defs>
</svg>
