<?xml version="1.0" standalone="no"?>
<!DOCTYPE svg PUBLIC "-//W3C//DTD SVG 20010904//EN"
 "http://www.w3.org/TR/2001/REC-SVG-20010904/DTD/svg10.dtd">
<svg version="1.0" xmlns="http://www.w3.org/2000/svg"
 width="512.000000pt" height="512.000000pt" viewBox="0 0 512.000000 512.000000"
 preserveAspectRatio="xMidYMid meet">

<g transform="translate(0.000000,512.000000) scale(0.100000,-0.100000)"
fill="#000000" stroke="none">
<path d="M2488 4490 c-24 -25 -29 -36 -23 -58 3 -15 15 -35 25 -46 17 -17 38
-19 302 -20 311 -2 342 2 354 50 9 37 -6 76 -36 91 -18 9 -101 13 -308 13
l-284 0 -30 -30z"/>
<path d="M1958 2467 c-323 -106 -584 -195 -580 -199 4 -3 271 -92 595 -196
l587 -190 588 190 c323 104 590 193 594 196 6 7 -1168 393 -1188 391 -5 0
-273 -87 -596 -192z"/>
</g>
</svg>
