<?xml version="1.0" standalone="no"?>
<!DOCTYPE svg PUBLIC "-//W3C//DTD SVG 20010904//EN"
 "http://www.w3.org/TR/2001/REC-SVG-20010904/DTD/svg10.dtd">
<svg version="1.0" xmlns="http://www.w3.org/2000/svg"
 width="512.000000pt" height="512.000000pt" viewBox="0 0 512.000000 512.000000"
 preserveAspectRatio="xMidYMid meet">

<g transform="translate(0.000000,512.000000) scale(0.100000,-0.100000)"
fill="#000000" stroke="none">
<path d="M3275 3060 c-266 -42 -501 -214 -621 -455 -62 -127 -85 -224 -86
-365 -3 -372 219 -681 573 -801 81 -28 111 -33 224 -36 210 -8 365 39 537 160
16 10 60 -30 366 -336 l348 -347 49 0 c77 1 115 41 115 121 l0 43 -350 350
-349 351 31 50 c83 133 121 275 120 445 -1 141 -24 238 -86 365 -52 105 -129
202 -218 275 -75 61 -237 142 -330 165 -83 20 -243 27 -323 15z m279 -246
c158 -39 313 -165 384 -315 48 -100 62 -162 62 -271 0 -328 -271 -598 -600
-598 -251 0 -488 167 -570 403 -28 78 -37 232 -21 319 21 107 83 221 165 302
158 158 361 214 580 160z"/>
<path d="M1367 1720 c-49 -9 -104 -63 -118 -115 -6 -22 -9 -85 -7 -140 4 -114
20 -152 78 -188 34 -22 42 -22 400 -22 347 0 367 1 398 20 59 35 76 77 80 190
2 55 -1 118 -7 140 -14 55 -68 105 -123 116 -53 10 -648 10 -701 -1z"/>
</g>
</svg>
