<svg width="20" height="20" viewBox="0 0 20 20" fill="none" xmlns="http://www.w3.org/2000/svg">
<g clip-path="url(#clip0_22901_11136)">
<path fill-rule="evenodd" clip-rule="evenodd" d="M4.90732 2.37819C6.41477 1.37094 8.18705 0.833328 10 0.833328C12.4303 0.836195 14.7602 1.80289 16.4787 3.52135C18.1971 5.23981 19.1638 7.56972 19.1667 9.99999C19.1667 11.813 18.6291 13.5853 17.6218 15.0927C16.6146 16.6002 15.183 17.7751 13.508 18.4689C11.833 19.1627 9.98987 19.3442 8.21172 18.9905C6.43356 18.6368 4.80021 17.7638 3.51823 16.4818C2.23625 15.1998 1.36321 13.5665 1.00951 11.7883C0.655815 10.0102 0.837346 8.16705 1.53115 6.49206C2.22495 4.81707 3.39987 3.38544 4.90732 2.37819ZM5.83327 16.236C7.06664 17.0601 8.51668 17.5 10 17.5C11.9884 17.4976 13.8947 16.7066 15.3007 15.3006C16.7067 13.8946 17.4976 11.9884 17.5 9.99999C17.5 8.51663 17.0602 7.06659 16.2361 5.83322C15.412 4.59985 14.2406 3.63855 12.8702 3.0709C11.4997 2.50324 9.99172 2.35472 8.53687 2.6441C7.08201 2.93349 5.74564 3.6478 4.69674 4.69669C3.64785 5.74559 2.93354 7.08196 2.64415 8.53682C2.35477 9.99167 2.50329 11.4997 3.07095 12.8701C3.6386 14.2406 4.5999 15.4119 5.83327 16.236ZM10.8335 14.5835C10.8335 14.1232 10.4604 13.7501 10.0001 13.7501C9.53991 13.7501 9.16681 14.1232 9.16681 14.5835C9.16681 15.0437 9.53991 15.4168 10.0001 15.4168C10.4604 15.4168 10.8335 15.0437 10.8335 14.5835ZM13.0061 9.36062C13.2225 8.91013 13.3344 8.41658 13.3335 7.9168C13.3331 7.36667 13.1965 6.8252 12.9359 6.3407C12.6754 5.8562 12.2989 5.44374 11.8401 5.14013C11.3654 4.82781 10.8197 4.64005 10.2533 4.59417C9.68693 4.5483 9.11811 4.64578 8.59931 4.87763C8.01406 5.13807 7.51858 5.56529 7.17486 6.10586C6.83113 6.64642 6.65442 7.27633 6.66682 7.9168C6.66682 8.13781 6.75461 8.34977 6.91089 8.50605C7.06717 8.66233 7.27913 8.75013 7.50015 8.75013C7.72116 8.75013 7.93312 8.66233 8.0894 8.50605C8.24568 8.34977 8.33348 8.13781 8.33348 7.9168C8.32398 7.60387 8.40555 7.29492 8.56827 7.02746C8.731 6.76 8.96788 6.54554 9.25015 6.41013C9.51484 6.2858 9.80693 6.23124 10.0987 6.25167C10.3904 6.27209 10.672 6.3668 10.9168 6.5268C11.1366 6.67126 11.319 6.86572 11.4492 7.09424C11.5794 7.32277 11.6537 7.57888 11.6658 7.8416C11.678 8.10433 11.6279 8.36621 11.5194 8.60581C11.4109 8.84541 11.2473 9.05593 11.0418 9.22013C10.5303 9.61574 10.1031 10.1098 9.7855 10.6731C9.54455 11.1005 9.37037 11.5612 9.26816 12.0393C9.21612 12.2827 9.41091 12.5001 9.65983 12.5001H10.5367C10.7388 12.5001 10.9089 12.3542 10.9655 12.1602C11.1549 11.5116 11.5447 10.9359 12.0835 10.5185C12.4743 10.2069 12.7896 9.81111 13.0061 9.36062Z" fill="#333B48"/>
</g>
<defs>
<clipPath id="clip0_22901_11136">
<rect width="20" height="20" fill="white"/>
</clipPath>
</defs>
</svg>
