<?xml version="1.0" standalone="no"?>
<!DOCTYPE svg PUBLIC "-//W3C//DTD SVG 20010904//EN"
 "http://www.w3.org/TR/2001/REC-SVG-20010904/DTD/svg10.dtd">
<svg version="1.0" xmlns="http://www.w3.org/2000/svg"
 width="512.000000pt" height="512.000000pt" viewBox="0 0 512.000000 512.000000"
 preserveAspectRatio="xMidYMid meet">

<g transform="translate(0.000000,512.000000) scale(0.100000,-0.100000)"
fill="#000000" stroke="none">
<path d="M3603 4950 c-29 -12 -283 -436 -283 -473 0 -15 9 -36 20 -47 24 -24
82 -27 104 -5 33 33 266 434 266 458 0 50 -58 87 -107 67z"/>
<path d="M4650 4953 c-32 -13 -918 -663 -924 -678 -21 -55 12 -105 67 -105 28
0 106 53 468 315 239 174 446 327 462 341 32 30 36 72 10 102 -19 23 -59 34
-83 25z"/>
<path d="M4250 3915 c-359 -91 -370 -95 -370 -156 0 -38 32 -69 70 -69 17 0
177 37 356 81 244 62 331 87 345 102 37 41 14 110 -41 121 -14 3 -171 -31
-360 -79z"/>
<path d="M1933 3666 c-137 -45 -233 -178 -233 -325 0 -57 29 -91 76 -91 44 0
70 34 77 98 13 114 80 177 189 177 69 0 103 -21 136 -86 46 -88 16 -196 -97
-349 -74 -100 -106 -159 -126 -237 -32 -121 -12 -183 58 -183 46 0 68 27 79
97 12 79 37 130 113 233 116 158 152 256 142 384 -3 39 -14 92 -26 118 -25 60
-89 123 -149 150 -59 26 -180 33 -239 14z"/>
<path d="M1959 2545 c-79 -43 -53 -160 38 -172 37 -5 46 -2 73 25 46 47 37
117 -19 147 -37 18 -58 19 -92 0z"/>
<path d="M3346 2295 c-113 -194 -298 -382 -500 -509 l-83 -52 126 -12 c69 -6
135 -14 147 -18 18 -5 22 2 38 58 40 145 163 262 300 285 l38 6 -7 56 c-4 31
-10 100 -14 154 l-6 99 -39 -67z"/>
</g>
</svg>
